<svg xmlns="http://www.w3.org/2000/svg" viewBox="0 0 507.45 507.34">
  <defs>
    <style>.cls-1{fill:#bdbdbd;}.cls-2{fill:#00cbf8;}</style>
  </defs>
  <g id="Capa_2" data-name="Capa 2">
    <g id="Capa_1-2" data-name="Capa 1">
      <path class="cls-1" d="M507.45,254c0,140.28-113.8,253.39-254.91,253.35C112.7,507.31-.6,393.14,0,251.79S117.58-1.9,257.28,0C393.45,1.9,507.53,113,507.45,254Zm-7,0C500.28,117.58,390,7.14,253.88,7.15a246.21,246.21,0,0,0-246.77,248C7.69,394,122.23,501.62,256.76,500.38,390,499.15,500.61,388.3,500.44,254Z"/>
      <path class="cls-2" d="M500.44,254C500.61,388.3,390,499.15,256.76,500.38,122.23,501.62,7.69,394,7.11,255.11a246.21,246.21,0,0,1,246.77-248C390,7.14,500.28,117.58,500.44,254Zm-7.14-.28C492.92,121.22,387,16.77,258.58,14.25,124.64,11.62,14.8,118.73,14.06,252.85,13.32,385.29,121.25,493.28,254,493.13,386.17,493,493.27,385.81,493.3,253.68Z"/>
      <path class="cls-1" d="M247.91,121.18c11,0,17.14,3.88,21.25,14.71,5.06,13.36,9.7,26.89,14.16,40.47,1.31,4,3.1,5.36,7.36,5.33q43.47-.28,86.94,0c3.53,0,5.29-1,6.53-4.4,4-11,8.28-21.76,12.46-32.63,2.4-6.24,5.14-12.32,9.73-17.3,8.1-8.8,21.25-8.06,26.94,1.4,1.32,2.21,2.06,3.82-1,5.6-4.49,2.64-6.71,7.28-8.56,12-26.28,66.33-52.42,132.72-78.94,199-2.77,6.9.37,11.26,3.83,15.73,2.48,3.2,1.74,4.48-1.22,6.35-11.24,7.13-22.61,4.4-29.16-7.29-5.49-9.8-8.19-20.69-11.82-31.19q-31.43-90.94-62.61-182c-2.14-6.24-4.9-12.09-10.64-15.84-2.27-1.49-1.22-2.73-.07-4A18.39,18.39,0,0,1,247.91,121.18Zm82.36,199.88a11.85,11.85,0,0,0,1.22-1.64q20.85-56.61,41.72-113.22c1.63-4.42-1.2-3.79-3.68-3.79-24.14,0-48.28.1-72.42-.1-4.33,0-4.44,1.21-3.28,4.76,7.95,24.48,15.73,49,23.56,73.54C321.62,293.85,325.83,307.09,330.27,321.06Z"/>
      <path class="cls-2" d="M266.42,392.57c-11.78-.07-17.71-3.91-21.78-14.8-5-13.39-9.6-26.93-14.15-40.47-1.26-3.76-2.89-5.39-7.27-5.35-29,.25-58,.21-87,0-3.81,0-5.44,1.19-6.74,4.72-4.65,12.65-9.64,25.17-14.63,37.68A36.27,36.27,0,0,1,105,388.63c-8.07,7-20.49,4.59-25.12-4.74-.85-1.71-1.06-2.77.89-4,4.88-3.06,7.43-7.95,9.48-13.12,25.78-65.11,51.38-130.29,77.57-195.23,3.12-7.74,2.14-13.36-2.74-19-2.38-2.76-1.94-4.14,1-6,11.52-7.39,23.58-4.53,29.73,7.73,7.71,15.36,12,32,17.6,48.18,19,54.8,37.67,109.71,56.55,164.55,2.12,6.16,4.85,12.12,10.8,15.72,2,1.22,1.22,2.26.12,3.55A17,17,0,0,1,266.42,392.57Zm-83-200.2a19,19,0,0,0-1.27,2.11q-20.74,56.43-41.53,112.84c-1.55,4.18.63,3.87,3.37,3.87,24.15,0,48.31-.1,72.46.06,4.15,0,4.63-1,3.4-4.8-8.31-25.61-16.4-51.29-24.57-76.94C191.39,217.33,187.49,205.16,183.4,192.37Z"/>
    </g>
  </g>
</svg>